<svg xmlns="http://www.w3.org/2000/svg" viewBox="0 0 264.5 106.17"><defs><style>.cls-1{fill:#f05a24;}.cls-2{font-size:45px;stroke:#000;stroke-miterlimit:10;stroke-width:2px;letter-spacing:0.15em;}.cls-2,.cls-3{font-family:MyriadPro-Regular, Myriad Pro;}.cls-3{font-size:36px;letter-spacing:0em;}.cls-4{letter-spacing:0em;}.cls-5{letter-spacing:0em;}</style></defs><g id="Layer_6" data-name="Layer 6"><g id="Layer_4" data-name="Layer 4"><path class="cls-1" d="M154.66,232.67s-30.8,10.72-20.7,45.66c0,0-.36,2.13,11.35,13C145.31,291.33,121.36,252.87,154.66,232.67Z" transform="translate(-105.65 -189.46)"/><path class="cls-1" d="M169.35,208.25c-.2-.88-4.32-7.32-13.79-8-7.48-.5-12.63,5.53-13.08,9.52-.36,3.12,2.05,8.34,1.24,11.9a3.81,3.81,0,0,1-.38,1.08c0,.06-.05.11-.08.16a.41.41,0,0,1-.07.11l-.15.25-.21.28h0c-.84,1.06-2.43,2.16-5.46,2.2,0,0,2.93-.47,4.23-2.4a15.68,15.68,0,0,0-6.31-4.9l-.1,0-.69-.25-.59-.19-.48-.13-.49-.11a14.14,14.14,0,0,0-4.87-.19h0a11,11,0,0,0-6.49,3.58,8.59,8.59,0,0,1,5.74-4.32c-1.52-1.41-5.06-4.33-8.43-4.17,0,0,5-2.38,6.34-7.59s6.39-7.77,7.57-7.4,2.83,2.51,4.53,2.21A1.87,1.87,0,0,0,139,198a31.58,31.58,0,0,0,3.38-1.05c1-.43.75-2.07-.51-3.87s-2.11-4.26-3.82-3.5a19.52,19.52,0,0,1-6.55,1.39c-2.19.06-3.16.71-5.29,2.35s-7.94,5.21-11.85,9.35-6,6.45-7.78,7.6-.39,2.24.13,3.84-.14,5.84,2,9.33a36.52,36.52,0,0,0,4.71,5.8,3.1,3.1,0,0,1,.24-1.31,9.74,9.74,0,0,0,1.54,4q.3.48.66,1a5.41,5.41,0,0,1,1.83-3.39,7.16,7.16,0,0,0-1,4.58,22.21,22.21,0,0,0,.7,3.84c.2.72.4,1.3.54,1.66a14.5,14.5,0,0,0,.8,1.75,7.34,7.34,0,0,1,3.46-3.29,7.77,7.77,0,0,0-3.14,4.68,16.33,16.33,0,0,0-.3,4,18.9,18.9,0,0,0,.72,4,14.42,14.42,0,0,0,2.18,4.22c3.73,5,9.17,18.55,9.92,20.45-1.08-2.81-10.91-31.25,25.09-44.9,0,0,2.46,2.81,4.15,1.31,1.47-1.31.74-2.27,2.26-2.7.53-.14.18-1.1.18-1.1s.85-.06.75-.65c-.07-.43-.12-2,.59-2s1.62-.14,1.72-.59a30.45,30.45,0,0,0-1-5,1.52,1.52,0,0,1,.33-1.37l1.38-1.57a1.18,1.18,0,0,0,.29-.72l.31-4.55S169.54,209.13,169.35,208.25Z" transform="translate(-105.65 -189.46)"/><text class="cls-2" transform="translate(63.43 58.03)">Optimal</text><text class="cls-3" transform="translate(48.9 97.17) scale(1.01 1)">Nut<tspan class="cls-4" x="55.55" y="0">r</tspan><tspan class="cls-5" x="67.5" y="0">ition Hub</tspan></text><polygon class="cls-1" points="257.24 103.52 40.39 103.52 41.66 105.94 257.24 105.94 257.24 103.52"/><polygon class="cls-1" points="257.3 65.73 113.83 65.73 114.67 68.15 257.3 68.15 257.3 65.73"/></g></g></svg>